<?xml version="1.0" encoding="utf-8"?>
<!-- Generator: Adobe Illustrator 24.1.0, SVG Export Plug-In . SVG Version: 6.00 Build 0)  -->
<!DOCTYPE svg PUBLIC "-//W3C//DTD SVG 1.1//EN" "http://www.w3.org/Graphics/SVG/1.1/DTD/svg11.dtd" [
	<!ENTITY ns_extend "http://ns.adobe.com/Extensibility/1.0/">
	<!ENTITY ns_ai "http://ns.adobe.com/AdobeIllustrator/10.0/">
	<!ENTITY ns_graphs "http://ns.adobe.com/Graphs/1.0/">
	<!ENTITY ns_vars "http://ns.adobe.com/Variables/1.0/">
	<!ENTITY ns_imrep "http://ns.adobe.com/ImageReplacement/1.0/">
	<!ENTITY ns_sfw "http://ns.adobe.com/SaveForWeb/1.0/">
	<!ENTITY ns_custom "http://ns.adobe.com/GenericCustomNamespace/1.0/">
	<!ENTITY ns_adobe_xpath "http://ns.adobe.com/XPath/1.0/">
]>
<svg version="1.1" xmlns:x="&ns_extend;" xmlns:i="&ns_ai;" xmlns:graph="&ns_graphs;"
	 xmlns="http://www.w3.org/2000/svg" xmlns:xlink="http://www.w3.org/1999/xlink" x="0px" y="0px" viewBox="0 0 750 750"
	 enable-background="new 0 0 750 750" xml:space="preserve">
<metadata>
	<sfw  xmlns="&ns_sfw;">
		<slices></slices>
		<sliceSourceBounds  bottomLeftOrigin="true" height="2158.688" width="5572.818" x="-5582.818" y="1978"></sliceSourceBounds>
	</sfw>
</metadata>
<g id="FILL-BACKGROUND">
	<rect fill="#000" width="750" height="750"/>
</g>
<g id="N-DIMENSIONS">
</g>
<g id="AG-GUIDES">
</g>
<g id="N-TEXT">
</g>
<g id="AG-DIAGRAM">
	<g id="POLYLINE_53_">
		<g>
			<g>
				
					<line fill="none" stroke="#C346FF" stroke-width="3.25" stroke-linecap="round" stroke-linejoin="round" x1="211.757" y1="637.046" x2="213.757" y2="637.046"/>
				
					<line fill="none" stroke="#C346FF" stroke-width="3.25" stroke-linecap="round" stroke-linejoin="round" stroke-dasharray="4.0477,7.0835" x1="220.841" y1="637.046" x2="562.367" y2="637.046"/>
				
					<line fill="none" stroke="#C346FF" stroke-width="3.25" stroke-linecap="round" stroke-linejoin="round" x1="565.909" y1="637.046" x2="567.909" y2="637.046"/>
			</g>
		</g>
	</g>
</g>
<g id="AG-POP-CULTURE">
	<g id="POLYLINE_64_">
		
			<path fill="none" stroke="#C346FF" stroke-width="2.75" stroke-linecap="round" stroke-linejoin="round" stroke-miterlimit="10" d="
			M437.416,536.748c6.073,4.526,12.707,9.385,18.133,14.642c2.335,2.284,4.527,4.788,6.169,7.623
			c2.745,4.617,3.545,10.064,4.032,15.331l1.099,13.741c0.734,8.184,2.265,16.368,4.941,24.146c1.469,4.21,3.126,8.518,5.622,12.236
			"/>
	</g>
	<g id="POLYLINE_63_">
		
			<path fill="none" stroke="#C346FF" stroke-width="2.75" stroke-linecap="round" stroke-linejoin="round" stroke-miterlimit="10" d="
			M362.796,527.34c2.718,8.559,6.629,20.217,9.696,28.614c2.3,6.419,7.272,18.776,9.62,25.234c0.983,2.833,1.893,5.758,2.292,8.737
			c0.249,1.862,0.255,3.773-0.078,5.626c-0.551,2.992-1.773,5.838-3.13,8.545c-1.077,2.098-2.316,4.157-3.74,6.038
			c-0.972,1.27-2.048,2.5-3.339,3.456c-1.452,1.103-3.207,1.717-4.979,2.08c0,0-3.511,0.71-3.511,0.71
			c-2.021,0.453-4.048,1.037-5.927,1.917c-1.316,0.62-2.581,1.398-3.623,2.421c-2.243,2.214-3.083,5.417-3.504,8.45
			c-0.132,1.003-0.25,2.165-0.314,3.175c-0.018,0.371-0.027,0.757,0.016,1.127c0.044,0.393,0.154,0.789,0.388,1.112
			c0.242,0.339,0.597,0.578,0.969,0.754c0.51,0.24,1.066,0.388,1.614,0.512c1.095,0.243,2.267,0.39,3.383,0.513
			c5.168,0.523,10.787,0.603,15.989,0.673c3.811-0.034,9.856,0.132,13.62-0.127"/>
	</g>
	<g id="POLYLINE_62_">
		
			<path fill="none" stroke="#C346FF" stroke-width="2.75" stroke-linecap="round" stroke-linejoin="round" stroke-miterlimit="10" d="
			M357.526,531.24c1.624-1.299,3.502-2.673,5.21-3.858c2.38-1.612,8.64-5.786,10.886-7.395c3.955-2.827,9.321-7.254,13.742-9.198
			c1.903-0.857,3.952-1.471,6.047-1.553"/>
	</g>
	<g id="POLYLINE_61_">
		
			<path fill="none" stroke="#C346FF" stroke-width="2.75" stroke-linecap="round" stroke-linejoin="round" stroke-miterlimit="10" d="
			M329.109,372.744c5.899,0.202,24.627-0.215,30.818-0.295c1.962-0.005,5.91,0.04,7.871,0.09"/>
	</g>
	<g id="POLYLINE_60_">
		
			<path fill="none" stroke="#C346FF" stroke-width="2.75" stroke-linecap="round" stroke-linejoin="round" stroke-miterlimit="10" d="
			M320.98,387.176c3.752-6.195,8.292-15.254,12.263-21.313c0,0,9.074-13.351,9.074-13.351c5.331-8.049,10.214-16.613,13.447-25.735
			c4.297-12.091,6.243-25.039,5.993-37.858"/>
	</g>
	<g id="POLYLINE_59_">
		
			<path fill="none" stroke="#C346FF" stroke-width="2.75" stroke-linecap="round" stroke-linejoin="round" stroke-miterlimit="10" d="
			M336.251,295.019c-2.663,5.38-5.195,10.994-6.902,16.755c-1.936,6.309-3.191,14.874-4.34,21.435
			c-0.629,3.603-1.378,7.447-2.381,10.954c-1.533,5.334-3.76,11.45-5.755,16.637c-0.784,1.919-1.632,3.879-2.731,5.639
			c-0.516,0.81-1.094,1.608-1.843,2.22c-0.547,0.448-1.199,0.76-1.882,0.94c-0.842,0.238-2.14,0.345-3.01,0.465
			c-1.37,0.182-2.848,0.483-4.202,0.771"/>
	</g>
	<g id="POLYLINE_58_">
		
			<path fill="none" stroke="#C346FF" stroke-width="2.75" stroke-linecap="round" stroke-linejoin="round" stroke-miterlimit="10" d="
			M298.638,397.943c0.624-4-0.08-8.123-1.424-11.908c-0.678-1.837-1.496-3.685-2.82-5.154c-2.456-2.779-6.429-3.268-9.936-2.982
			c-4.282,0.388-8.742,2.098-11.359,5.653c-1.255,1.71-2.052,3.721-2.598,5.76c-1.385,5.102-1.284,11.367-1.503,16.641
			c-0.134,2.696-0.377,5.449-1.301,8.003c-0.54,1.521-1.336,2.952-2.233,4.291c-1.46,2.199-4.355,5.703-5.96,7.843
			c-1.912,2.539-3.638,5.273-5.025,8.134c-1.451,2.978-2.585,6.149-3.437,9.348c-0.741,2.779-1.305,5.691-1.72,8.538
			c-0.324,2.296-0.586,4.663-0.614,6.984c-0.003,0.776,0.015,1.578,0.132,2.347c0.059,0.361,0.134,0.732,0.297,1.062l0.013,0.025
			l0.013,0.024l0.013,0.024l0.014,0.023l0.014,0.022l0.014,0.022l0.014,0.021l0.015,0.02c0,0,0.015,0.019,0.015,0.019l0.015,0.019
			l0.015,0.018c0,0,0.015,0.017,0.015,0.017s0.016,0.016,0.016,0.016l0.016,0.016l0.016,0.015c0,0,0.016,0.014,0.016,0.014
			l0.016,0.013l0.017,0.013l0.017,0.012l0.017,0.011l0.017,0.01l0.018,0.009l0.018,0.009l0.018,0.008c0,0,0.018,0.007,0.018,0.007
			l0.018,0.006l0.019,0.005l0.019,0.005l0.019,0.004l0.019,0.003l0.02,0.002l0.02,0.001c0.294,0.003,0.551-0.18,0.791-0.329
			l0.476-0.32c0.27-0.169,0.627-0.41,0.958-0.327c0.008,0.002,0.016,0.005,0.016,0.005c0.008,0.003,0.016,0.005,0.016,0.005
			c0.008,0.003,0.016,0.006,0.016,0.006c0.008,0.003,0.015,0.006,0.015,0.006c0.008,0.003,0.015,0.007,0.015,0.007
			c0.008,0.004,0.015,0.008,0.015,0.008c0.008,0.004,0.015,0.008,0.015,0.008c0.007,0.004,0.015,0.009,0.015,0.009
			s0.014,0.009,0.014,0.009l0.014,0.01l0.014,0.01l0.014,0.011l0.014,0.012l0.014,0.012l0.014,0.013l0.013,0.013l0.013,0.014
			c0,0,0.013,0.015,0.013,0.015l0.013,0.015l0.013,0.016l0.013,0.016l0.013,0.017c0,0,0.012,0.017,0.012,0.017l0.012,0.018
			l0.012,0.018c0.122,0.19,0.201,0.406,0.269,0.62c0.173,0.564,0.271,1.178,0.363,1.76c0.258,1.655,0.432,3.933,0.994,5.5
			c0.119,0.313,0.263,0.626,0.484,0.88l0.018,0.02c0,0,0.018,0.019,0.018,0.019l0.018,0.019l0.018,0.018l0.018,0.018l0.019,0.017
			c0,0,0.019,0.017,0.019,0.017l0.019,0.016l0.019,0.016l0.019,0.015c0,0,0.02,0.014,0.02,0.014l0.02,0.014l0.02,0.013
			c0,0,0.02,0.013,0.02,0.013l0.016,0.01l0.016,0.009l0.016,0.009c0,0,0.016,0.009,0.016,0.009l0.017,0.008l0.017,0.008
			c0,0,0.017,0.008,0.017,0.008l0.017,0.007c0,0,0.017,0.007,0.017,0.007l0.017,0.006l0.017,0.006l0.017,0.006l0.017,0.005
			c0,0,0.018,0.005,0.018,0.005s0.018,0.005,0.018,0.005s0.018,0.004,0.018,0.004s0.018,0.004,0.018,0.004l0.018,0.004l0.018,0.004
			l0.018,0.003c0.285,0.046,0.576-0.021,0.844-0.117c1.24-0.476,2.311-1.486,3.53-2.005c0.328-0.133,0.692-0.24,1.046-0.163
			c0.286,0.062,0.532,0.24,0.731,0.448c0.359,0.38,0.611,0.853,0.852,1.313c0.525,1.003,0.994,2.23,1.86,2.982
			c0.458,0.388,1.053,0.574,1.644,0.62c0.908,0.07,1.827-0.101,2.715-0.279c1.946-0.405,4.091-0.986,6.079-1.04
			c2.101-0.081,4.226,0.195,6.231,0.828c1.355,0.435,2.677,1.04,3.812,1.906c0.825,0.632,1.553,1.422,1.999,2.368
			c0.501,1.053,0.65,2.238,0.638,3.394c-0.041,2.57-0.778,5.356-1.151,7.894c-0.478,3.16-0.544,6.459,0.375,9.547
			c0.504,1.706,1.323,3.327,2.411,4.735c2.076,2.66,4.918,4.666,7.968,6.067c2.911,1.305,6.168,2.13,9.366,1.658
			c3.69-0.534,6.882-2.706,9.674-5.063"/>
	</g>
	<g id="POLYLINE_57_">
		
			<path fill="none" stroke="#C346FF" stroke-width="2.75" stroke-linecap="round" stroke-linejoin="round" stroke-miterlimit="10" d="
			M293.355,481.133c0.491,2.848,1.592,5.57,3.125,8.014c1.638,2.643,3.791,5.08,6.583,6.526c2.852,1.487,6.185,1.663,9.337,1.415
			c2.731-0.251,5.486-0.786,8.028-1.835c1.195-0.497,2.304-1.232,3.369-1.96"/>
	</g>
	<g id="POLYLINE_56_">
		
			<path fill="none" stroke="#C346FF" stroke-width="2.75" stroke-linecap="round" stroke-linejoin="round" stroke-miterlimit="10" d="
			M316.752,481.72l-0.011,0.02l-0.011,0.02c0,0-0.01,0.021-0.01,0.021l-0.01,0.021c0,0-0.01,0.021-0.01,0.021
			c-0.278,0.656-0.134,1.474,0.015,2.149c0.257,1.076,0.685,2.119,1.153,3.118c0.611,1.279,1.326,2.541,2.146,3.697
			c0.566,0.78,1.196,1.565,2.054,2.036c0.618,0.342,1.331,0.46,2.03,0.488c1.577,0.055,3.156-0.255,4.669-0.676
			c2.488-0.712,4.869-1.816,7.076-3.164c0.821-0.517,1.658-1.062,2.344-1.753c0.168-0.178,0.336-0.369,0.428-0.599l0.005-0.013
			l0.004-0.013l0.004-0.012l0.004-0.012l0.003-0.012c0,0,0.003-0.012,0.003-0.012l0.003-0.012c0,0,0.003-0.012,0.003-0.012
			l0.002-0.012c0,0,0.002-0.012,0.002-0.012s0.002-0.012,0.002-0.012l0.001-0.011l0.001-0.011l0.001-0.011l0-0.011l0-0.011l0-0.011
			c0,0-0.001-0.011-0.001-0.011l-0.001-0.011l-0.001-0.011l-0.002-0.01l-0.002-0.01c0,0-0.002-0.01-0.002-0.01l-0.002-0.01
			l-0.003-0.01l-0.003-0.009l-0.003-0.008c-0.003-0.008-0.007-0.017-0.007-0.017c-0.004-0.008-0.008-0.016-0.008-0.016
			c-0.004-0.008-0.009-0.016-0.009-0.016c-0.005-0.008-0.01-0.016-0.01-0.016c-0.005-0.008-0.01-0.015-0.01-0.015
			c-0.006-0.007-0.011-0.015-0.011-0.015c-0.006-0.007-0.012-0.015-0.012-0.015c-0.007-0.007-0.013-0.014-0.013-0.014
			c-0.007-0.007-0.014-0.014-0.014-0.014c-0.007-0.007-0.015-0.014-0.015-0.014c-0.008-0.007-0.016-0.013-0.016-0.013
			c-0.008-0.007-0.017-0.013-0.017-0.013c-0.089-0.065-0.192-0.107-0.295-0.141c-0.427-0.132-0.889-0.163-1.332-0.2l-2.469-0.145
			c-1.956-0.114-3.871-0.634-5.673-1.389c-2.682-1.11-5.619-2.717-8.434-3.446c-0.641-0.162-1.302-0.295-1.965-0.293
			C317.742,481.029,317.058,481.169,316.752,481.72z"/>
	</g>
	<g id="POLYLINE_55_">
		
			<path fill="none" stroke="#C346FF" stroke-width="2.75" stroke-linecap="round" stroke-linejoin="round" stroke-miterlimit="10" d="
			M338.653,486.925c0.39-0.735,0.88-1.598,1.139-2.378c0.244-0.705,0.377-1.451,0.453-2.192c0.45-5.392-0.589-11.096-1.497-16.409
			c-0.358-2.378-0.763-4.934-0.088-7.288c0.674-2.384,2.995-4.065,4.717-5.695c1.184-1.096,2.284-2.317,3.078-3.729
			c1.726-3.058,2.486-6.651,2.26-10.149c-0.078-1.115-0.284-2.23-0.613-3.298c-0.498-1.658-1.391-3.525-2.035-5.14
			c-0.482-1.23-0.885-2.523-0.925-3.853c-0.062-3.23,1.552-6.414,1.423-9.652c-0.107-3.155-2.079-5.943-3.092-8.846
			c-0.35-1.01-0.6-2.09-0.462-3.163c0.115-0.932,0.481-1.818,0.926-2.638c0.843-1.549,2.118-3.128,3.024-4.64
			c1.935-3.105,2.276-6.865,2.357-10.442c0.023-1.112,0.055-2.336-0.071-3.443c-0.051-0.421-0.121-0.849-0.276-1.246
			c-0.109-0.274-0.271-0.554-0.548-0.683l-0.012-0.005c0,0-0.012-0.005-0.012-0.005c-0.193-0.08-0.41-0.07-0.611-0.026
			c-0.785,0.197-1.513,0.749-2.174,1.203c-1.778,1.324-3.8,2.782-5.713,3.874c-3.164,1.833-6.545,3.502-9.935,4.877
			c-1.272,0.469-2.645,0.925-4.015,0.705c-1.643-0.275-2.617-1.806-3.472-3.092c-1.303-2.088-2.707-4.403-4.323-6.251
			c-2.016-2.343-4.38-4.447-6.765-6.407c-4.516-3.677-9.503-7.048-14.415-10.175c-2.804-1.682-5.952-3.833-8.893-5.232
			c-1.626-0.786-3.345-1.447-5.14-1.707c-1.353-0.2-2.746-0.151-4.08,0.155c-2.781,0.649-5.256,2.219-7.5,3.936
			c-4.169,3.259-7.735,7.299-11.013,11.433c-6.74,8.682-12.615,18.194-16.806,28.373c-3.725,9.066-6,18.765-6.576,28.553
			c-1.084,16.592,2.257,35.973,4.365,52.484c0.902,6.881,1.212,15.57,1.805,22.498c0.394,4.383,1.101,9.029,1.879,13.363
			c2.436,13.97,8.863,39.721,12.112,53.731c0.473,1.916,1.331,5.449,1.98,7.445c0.767,2.499,1.762,4.962,2.999,7.268
			c1.519,2.818,3.606,6.374,4.724,9.33c1.059,2.763,1.77,5.688,2.06,8.634c0.125,1.376,0.162,2.779-0.03,4.15
			c-0.14,0.98-0.421,1.961-0.97,2.794c-0.72,1.121-1.895,1.842-3.099,2.352c-1.189,0.517-2.653,1.021-3.786,1.65
			c-1.075,0.579-2.071,1.337-2.823,2.305c-1.498,1.965-2.197,4.487-2.449,6.917c-0.13,1.42-0.102,2.878,0.234,4.269
			c0.238,0.991,0.679,1.957,1.411,2.68c1.032,1.037,2.476,1.512,3.878,1.805c2.6,0.513,5.378,0.681,8.025,0.815
			c6.731,0.214,14.477,0.393,21.203,0.259c2.768-0.09,5.66-0.2,8.397-0.642c2.155-0.365,4.564-1.09,5.702-3.117
			c0.472-0.832,0.72-1.776,0.878-2.713c0.374-2.252,0.254-5.065,0.264-7.357c-0.007-1.403,0.161-4.539,0.23-5.976
			c0.059-1.576,0.04-3.182-0.176-4.744c-0.198-1.443-0.564-2.891-1-4.28c-1.026-3.231-2.506-6.492-3.939-9.568
			c-2.482-5.262-6.089-12.6-8.026-18.008c-1.516-4.11-2.764-8.404-3.513-12.723c-0.676-3.869-0.935-7.878-0.995-11.803
			c-0.196-8.303,1.014-18.24,0.524-26.536c-0.021-0.857-0.041-1.747,0.102-2.596c0.115-0.703,0.378-1.407,0.888-1.919
			c0.64-0.643,1.533-0.949,2.399-1.153c2.585-0.551,5.291-0.387,7.912-0.233c3.313,0.296,6.834,0.492,10.081,1.237
			c2.043,0.486,4.025,1.365,5.609,2.764c1.222,1.061,2.21,2.374,3.049,3.751c1.224,2.023,2.164,4.23,2.934,6.462
			c2.083,6.184,3.07,12.771,3.053,19.292c-0.04,5.35-0.83,10.719-2.196,15.888c-0.692,2.624-1.571,5.299-2.551,7.83
			c-1.459,3.688-3.368,7.97-4.534,11.751c-1.204,3.876-2.248,7.91-2.18,11.996c0.061,1.977,0.432,4.075,1.723,5.64
			c0.872,1.055,2.094,1.769,3.374,2.22c1.951,0.682,4.051,0.854,6.105,0.841c4.094-0.061,8.181-0.864,12.114-1.964
			c4.786-1.374,9.473-3.291,13.741-5.867c1.533-0.94,3.047-1.98,4.401-3.166c0.945-0.831,1.836-1.75,2.532-2.802
			c0.706-1.06,1.196-2.284,1.294-3.561c0.098-1.171-0.132-2.347-0.467-3.465c-0.957-3.247-3.093-6.464-3.784-9.796
			c-0.242-1.146-0.339-2.341-0.372-3.511c-0.083-6.518,0.481-14.184,0.946-20.723c1.099-13.214,4.397-43.316,4.476-56.144
			c0.19-9.207-0.623-19.037-1.578-28.213"/>
	</g>
	<g id="POLYLINE_54_">
		
			<path fill="none" stroke="#C346FF" stroke-width="2.75" stroke-linecap="round" stroke-linejoin="round" stroke-miterlimit="10" d="
			M257.224,489.161c3.661-1.893,7.485-3.7,11.444-4.861c4.216-1.263,8.643-1.919,13.024-2.262
			c8.728-0.623,17.652-0.182,26.148,2.011"/>
	</g>
	<g id="POLYLINE_48_">
		
			<path fill="none" stroke="#C346FF" stroke-width="2.75" stroke-linecap="round" stroke-linejoin="round" stroke-miterlimit="10" d="
			M261.953,496.063c2.806-1.565,5.871-3.245,8.885-4.327c3.656-1.349,7.518-2.26,11.341-2.992c8.341-1.519,16.95-2.303,25.404-1.373
			"/>
	</g>
	<g id="POLYLINE_47_">
		
			<path fill="none" stroke="#C346FF" stroke-width="2.75" stroke-linecap="round" stroke-linejoin="round" stroke-miterlimit="10" d="
			M267.832,508.461c2.085-2.572,4.292-5.172,6.89-7.237c3.135-2.529,6.801-4.356,10.537-5.82c3.997-1.551,8.219-2.718,12.444-3.451
			c3.585-0.612,7.266-0.933,10.902-0.748"/>
	</g>
	<g id="POLYLINE_46_">
		
			<path fill="none" stroke="#C346FF" stroke-width="2.75" stroke-linecap="round" stroke-linejoin="round" stroke-miterlimit="10" d="
			M335.717,489.548c3.136,1.582,6.142,3.499,8.781,5.825c4.262,3.777,7.792,8.401,10.378,13.472"/>
	</g>
	<g id="POLYLINE_45_">
		
			<path fill="none" stroke="#C346FF" stroke-width="2.75" stroke-linecap="round" stroke-linejoin="round" stroke-miterlimit="10" d="
			M338.653,486.925c2.99,1.025,5.958,2.281,8.721,3.818c4.351,2.429,8.475,5.381,12.13,8.77"/>
	</g>
	<g id="POLYLINE_44_">
		
			<path fill="none" stroke="#C346FF" stroke-width="2.75" stroke-linecap="round" stroke-linejoin="round" stroke-miterlimit="10" d="
			M340.182,482.88c1.843,0.109,3.894,0.244,5.708,0.528c2.515,0.38,5.113,0.99,7.572,1.643c4.519,1.231,9.067,2.736,13.301,4.749"/>
	</g>
	<g id="POLYLINE_43_">
		
			<path fill="none" stroke="#C346FF" stroke-width="2.75" stroke-linecap="round" stroke-linejoin="round" stroke-miterlimit="10" d="
			M304.764,496.397c-0.268,2.112,0.23,4.254,0.862,6.261c0.168,0.506,0.349,1.023,0.653,1.465c0.239,0.352,0.558,0.646,0.907,0.887
			c1.105,0.739,2.394,1.172,3.683,1.46c1.588,0.333,3.276,0.418,4.845-0.051c2.288-0.703,4.056-2.544,5.203-4.589
			c0.612-1.098,1.06-2.296,1.266-3.538c0.221-1.298,0.17-2.634-0.018-3.932"/>
	</g>
	<g id="POLYLINE_42_">
		
			<path fill="none" stroke="#C346FF" stroke-width="2.75" stroke-linecap="round" stroke-linejoin="round" stroke-miterlimit="10" d="
			M479.663,610.391c-0.994,4.408-1.829,9.01-2.207,13.513c-0.199,2.545-0.301,5.144,0.01,7.684c0.196,1.392,0.501,2.908,1.548,3.924
			c0.541,0.522,1.252,0.824,1.968,1.02c1.706,0.456,3.546,0.467,5.302,0.505c4.728-0.071,39.608,0.191,43.41-0.144
			c0.839-0.088,1.695-0.223,2.47-0.569c1.722-0.749,2.532-2.605,2.877-4.345c0.327-1.671,0.385-3.403,0.184-5.093
			c-0.15-1.163-0.422-2.343-1.026-3.36c-1.093-1.832-3.156-2.745-4.996-3.651c-1.284-0.608-3.987-1.797-5.201-2.448
			c-0.464-0.252-0.92-0.541-1.341-0.862c-1.142-0.869-2.081-1.983-2.91-3.147c-1.207-1.706-2.242-3.596-3.187-5.458"/>
	</g>
	<g id="POLYLINE_41_">
		
			<path fill="none" stroke="#C346FF" stroke-width="2.75" stroke-linecap="round" stroke-linejoin="round" stroke-miterlimit="10" d="
			M409.712,610.099c-3.031,4.508-8.412,6.517-13.481,7.762c-2.611,0.675-6.648,1.385-9.084,2.511
			c-0.732,0.346-1.429,0.795-1.993,1.381c-1.538,1.584-1.791,3.91-1.988,6.009c-0.12,1.541-0.135,3.116,0.125,4.644
			c0.154,0.864,0.396,1.735,0.864,2.486c0.992,1.634,3.036,1.959,4.793,2.08c5.319,0.166,43.398,0.069,48.25,0.04
			c0.935-0.032,1.936-0.067,2.861-0.222c0.848-0.141,1.713-0.414,2.356-1.008c0.439-0.401,0.746-0.928,0.962-1.477
			c0.306-0.779,0.463-1.617,0.587-2.441c0.911-6.176-0.555-12.421-2.487-18.267"/>
	</g>
	<g id="POLYLINE_40_">
		
			<path fill="none" stroke="#C346FF" stroke-width="2.75" stroke-linecap="round" stroke-linejoin="round" stroke-miterlimit="10" d="
			M483.42,339.222l1.181-0.054c1.108-0.063,2.24-0.199,3.269-0.636c0.825-0.343,1.563-0.88,2.174-1.529
			c1.319-1.412,2.218-3.173,2.895-4.969c0.77-2.108,1.246-4.36,1.176-6.612"/>
	</g>
	<g id="POLYLINE_39_">
		
			<path fill="none" stroke="#C346FF" stroke-width="2.75" stroke-linecap="round" stroke-linejoin="round" stroke-miterlimit="10" d="
			M486.471,353.602c-1.811-9.486-4.111-19.315-6.687-28.623"/>
	</g>
	<g id="POLYLINE_38_">
		
			<path fill="none" stroke="#C346FF" stroke-width="2.75" stroke-linecap="round" stroke-linejoin="round" stroke-miterlimit="10" d="
			M380.564,407.887l-0.326,2.13c-0.272,1.892-0.405,3.834-0.203,5.739c0.224,2.18,0.842,4.354,1.476,6.447
			c0.829,2.64,2.78,8.403,3.4,11.005c0.48,1.901,0.87,3.882,1.161,5.821c1.341,8.411,1.051,23.864,1.301,32.513
			c0.148,4.712,0.401,9.813,1.032,14.474c0.498,3.799,1.308,7.846,2.17,11.586l3.88,16.042c1.444,6.414,2.857,13.042,3.277,19.604
			c0.187,2.935,0.032,5.94-0.299,8.86c-0.444,3.741-1.031,8.124-0.906,11.856c0.123,5.385,0.936,10.804,2.626,15.926
			c0.841,2.611,2.456,5.933,3.615,8.452c0.358,0.808,0.718,1.651,0.971,2.498c0.208,0.698,0.348,1.439,0.217,2.165
			c-0.105,0.679-0.422,1.415-0.16,2.094c0.161,0.427,0.464,0.785,0.766,1.12c1.269,1.342,2.965,2.609,4.093,4.078
			c0.5,0.639,0.915,1.355,1.14,2.138c0.448,1.515,0.274,3.132-0.014,4.662c-0.498,2.48-1.343,5.254-1.526,7.78
			c-0.069,0.913-0.075,1.846,0.091,2.749c0.165,0.902,0.541,1.814,1.273,2.401c0.5,0.405,1.115,0.642,1.733,0.797
			c1.142,0.279,2.343,0.318,3.514,0.341l5.87-0.019c3.017,0.018,6.068,0.477,9.015,1.11c2.924,0.582,6.469,1.555,9.436,1.628
			c1.319,0.015,2.819-0.165,3.733-1.221c0.674-0.774,0.963-1.803,1.113-2.799c0.316-2.328,0.012-4.725-0.286-7.041
			c-0.488-3.597-1.399-8.211-1.395-11.799c0.007-0.997,0.085-2.006,0.311-2.979c0.436-1.936,1.536-3.82,1.826-5.793
			c0.203-1.343,0.042-2.716-0.204-4.042c-0.632-3.224-2.072-7.562-2.846-10.763c-1.462-5.924-2.485-12.128-3.205-18.184
			c-0.373-3.245-0.688-6.757-0.786-10.021c-0.094-2.356,0.063-6.425,0.055-8.797c-0.008-1.607-0.09-3.303-0.265-4.9
			c-0.811-6.87-3.428-17.174-4.837-24.015c-1.511-7.16-2.544-14.587-2.893-21.897c-0.63-8.407,0.358-48.029,0.382-57.215
			c0.177-8.537,0.908-17.559,1.833-26.052c0.455-3.667,0.871-7.59,1.807-11.167c0.151-0.514,0.307-1.046,0.58-1.511
			c0,0,0.019-0.031,0.019-0.031s0.02-0.03,0.02-0.03s0.02-0.029,0.02-0.029l0.019-0.027l0.02-0.026l0.02-0.025l0.02-0.023
			l0.02-0.022c0,0,0.02-0.02,0.02-0.02s0.02-0.019,0.02-0.019s0.02-0.018,0.02-0.018l0.02-0.016c0,0,0.008-0.007,0.008-0.007
			s0.008-0.006,0.008-0.006l0.008-0.006c0,0,0.008-0.006,0.008-0.006l0.008-0.006l0.008-0.005l0.008-0.005l0.008-0.005l0.008-0.005
			l0.008-0.004l0.008-0.004c0,0,0.008-0.004,0.008-0.004l0.008-0.004l0.008-0.003l0.008-0.003l0.008-0.003l0.008-0.003l0.008-0.002
			l0.008-0.002l0.008-0.002l0.009-0.002l0.008-0.001c0,0,0.009-0.001,0.009-0.001l0.009-0.001c0,0,0.008-0.001,0.008-0.001
			s0.009,0,0.009,0l0.009,0l0.009,0l0.009,0c0,0,0.009,0.001,0.009,0.001l0.009,0.001l0.009,0.001l0.009,0.001l0.009,0.002
			c0,0,0.009,0.002,0.009,0.002l0.009,0.002l0.009,0.002c0,0,0.009,0.003,0.009,0.003l0.009,0.003c0,0,0.009,0.003,0.009,0.003
			l0.009,0.003l0.009,0.004l0.009,0.004c0,0,0.009,0.004,0.009,0.004l0.009,0.004l0.009,0.004l0.009,0.005l0.009,0.005l0.009,0.005
			c0,0,0.009,0.005,0.009,0.005l0.009,0.006c0.109,0.073,0.194,0.176,0.271,0.281c0.317,0.459,0.523,0.997,0.728,1.513
			c3.425,9.76,6.863,20.254,11.661,29.42c1.733,3.227,4.344,7.583,5.565,10.998c1.149,3.093,1.791,6.432,2.35,9.678
			c0.553,3.425,1.854,12.383,2.582,15.628c0.616,2.923,1.45,6.017,2.306,8.88c1.178,3.817,4.103,12.808,5.038,16.526
			c0.949,3.617,1.766,7.405,2.32,11.104c0.465,3.083,0.737,6.294,0.761,9.411c0.013,3.335-0.052,7.998,0.219,11.288
			c0.242,3.16,0.728,6.502,1.232,9.633c2.493,13.891,5.657,31.28,7.105,45.181c0.077,0.805,0.167,1.639,0.151,2.44
			c-0.01,0.517-0.073,1.035-0.209,1.534c-0.161,0.604-0.429,1.187-0.703,1.747c-0.723,1.461-1.596,3.074-2.055,4.628
			c-0.37,1.172-0.574,2.402-0.637,3.629c-0.112,2.106,0.091,4.257,0.362,6.345c0.503,3.84,1.753,9.893,2.293,13.735
			c0.373,2.558,0.701,6.267,1.202,8.788c0.164,0.806,0.364,1.623,0.661,2.391c0.259,0.66,0.596,1.312,1.112,1.809
			c0.317,0.307,0.71,0.532,1.132,0.657c0.559,0.168,1.154,0.185,1.733,0.141c2.157-0.195,4.822-1.186,6.918-1.766
			c5.275-1.481,10.809-2.13,16.283-1.927c1.369,0.058,2.801,0.184,4.156,0.384c1.333,0.188,3.519,0.623,4.851,0.742
			c0.691,0.056,1.409,0.09,2.08-0.113c0.394-0.12,0.758-0.363,0.968-0.723c0.254-0.427,0.331-0.934,0.362-1.423
			c0.079-2.218-0.715-5.356-1.068-7.574c-0.303-1.763-0.513-3.583-0.527-5.371c-0.037-2.697,0.283-5.438,0.727-8.097
			c0.318-1.96,1.11-5.604,1.172-7.532c0.024-0.728-0.021-1.468-0.208-2.174c-0.134-0.511-0.346-1.004-0.632-1.449
			c-0.328-0.512-0.754-0.96-1.202-1.368c-1.559-1.398-3.566-2.524-5.103-3.948c-0.69-0.633-1.299-1.368-1.722-2.207
			c-0.578-1.123-0.856-2.378-0.981-3.628c-0.085-0.838-0.103-1.732-0.096-2.576c0.039-3.078,0.44-8.932,0.506-12.02
			c0.288-8.926-0.897-28.578-0.948-37.602c-0.074-3.472,0.204-7.838,0.369-11.315c0.029-0.942,0.028-1.927-0.052-2.868
			c-0.128-1.686-0.62-3.327-1.198-4.908l-1.385-3.686c-1.027-2.75-1.692-5.672-2.16-8.566c-0.337-2.011-0.664-4.718-0.899-6.764
			c-0.811-8.214-3.661-32.423-3.964-40.286c-0.326-6.108-0.05-14.402-0.421-20.503c-0.388-6.519-1.304-13.287-2.377-19.729"/>
	</g>
	<g id="POLYLINE_37_">
		
			<path fill="none" stroke="#C346FF" stroke-width="2.75" stroke-linecap="round" stroke-linejoin="round" stroke-miterlimit="10" d="
			M477.85,309.418c0.401-2.656,1.255-5.257,2.543-7.617c0.863-1.576,1.959-3.033,3.181-4.348"/>
	</g>
	<g id="POLYLINE_36_">
		
			<path fill="none" stroke="#C346FF" stroke-width="2.75" stroke-linecap="round" stroke-linejoin="round" stroke-miterlimit="10" d="
			M473.803,308.057c-0.019-2.629-0.323-5.289-0.986-7.836"/>
	</g>
	<g id="POLYLINE_35_">
		
			<line fill="none" stroke="#C346FF" stroke-width="2.75" stroke-linecap="round" stroke-linejoin="round" stroke-miterlimit="10" x1="381.655" y1="322.846" x2="381.584" y2="318.837"/>
	</g>
	<g id="POLYLINE_34_">
		
			<path fill="none" stroke="#C346FF" stroke-width="2.75" stroke-linecap="round" stroke-linejoin="round" stroke-miterlimit="10" d="
			M476.562,308.274c-1.169-0.627-2.561-0.339-3.753,0.071c-2.811,1.02-6.353,3.229-9.045,4.558
			c-3.222,1.643-6.694,3.057-10.109,4.253c-10.834,3.734-22.296,5.877-33.745,6.345c-8.057,0.426-17.973-0.819-26.033-1.622
			c-2.803-0.226-5.687-0.445-8.489-0.132c-1.78,0.223-3.73,0.678-4.936,2.11c-0.55,0.662-0.88,1.481-1.085,2.31
			c-0.493,2.024-0.348,4.331-0.355,6.404c-0.021,1.013-0.013,2.108-0.555,3.001c-0.333,0.549-0.862,0.944-1.384,1.301
			c-1.687,1.099-3.448,2.262-4.813,3.747c-1.658,1.741-2.77,3.924-3.448,6.217c-0.809,2.68-1.197,5.504-1.422,8.289
			c-0.329,4.322-0.244,8.749,0.043,13.071c0.682,10.159,2.603,20.318,5.407,30.099c0.756,2.519,1.481,5.411,2.545,7.81
			c0.364,0.786,0.78,1.578,1.406,2.188c0.371,0.361,0.849,0.629,1.372,0.664c1.034,0.074,1.995-0.548,2.624-1.328
			c0.798-0.983,1.068-2.272,1.165-3.507c0.219-3.263-0.596-8.341-0.883-11.638c-1.049-11.906-0.539-24.904-0.233-36.867
			c0.055-1.128,0.135-2.282,0.453-3.371c0.264-0.916,0.738-1.769,1.376-2.477c0.755-0.845,1.686-1.527,2.642-2.128
			c1.57-0.975,3.28-1.752,5.002-2.418c3.908-1.486,8.046-2.466,12.193-2.981c2.956-0.363,6.061-0.45,9.04-0.442
			c3.994,0.047,11.173,0.239,15.033,0.017c3.205-0.152,6.498-0.533,9.651-1.131c10.685-1.959,22.71-6.553,32.976-10.241
			c2.161-0.806,5.174-1.77,7.214-2.79c1.369-0.68,2.744-1.554,3.515-2.917c0.522-0.909,0.752-1.958,0.828-2.996
			c0.104-1.483-0.052-2.987-0.256-4.456c-0.359-2.35-0.875-4.742-1.997-6.858C478.035,309.581,477.432,308.746,476.562,308.274z"/>
	</g>
	<g id="POLYLINE_33_">
		
			<path fill="none" stroke="#C346FF" stroke-width="2.75" stroke-linecap="round" stroke-linejoin="round" stroke-miterlimit="10" d="
			M471.14,257.289l2.23,7.098c0.496,1.543,4.271,15.192,4.812,17.113c1.771,6.167,3.931,12.508,6.386,18.429
			c3.437,8.325,7.848,18.138,9.886,26.849c0.807,3.501,1.518,7.118,1.25,10.726c-0.146,1.801-0.607,3.602-1.515,5.174
			c-0.959,1.672-2.518,3.373-3.777,4.842c-1.19,1.394-2.346,2.865-3.201,4.491c-1.546,2.957-2.207,6.296-2.692,9.571
			c-0.526,4.127-1.625,14.784-1.943,18.912c-0.074,1.4-0.096,2.841,0.066,4.236c0.144,1.23,0.433,2.466,1.019,3.565
			c0.448,0.843,1.08,1.585,1.823,2.183c1.978,1.585,4.626,2.198,7.123,1.939c2.768-0.301,5.32-1.604,7.608-3.131
			c2.976-2.062,5.856-4.433,7.886-7.465c1.573-2.352,2.59-5.043,3.376-7.747c1.22-4.3,1.955-8.818,2.506-13.25
			c0.724-6.35,1.023-12.88-0.155-19.193c-0.778-4.272-2.475-9.288-3.339-13.543c-0.68-3.26-0.958-6.662-1.115-9.985
			c-0.201-5.87-0.371-15.702-1.038-21.407c-1-9.372-2.665-18.828-5.635-27.788c-1.47-4.457-3.503-9.129-5.458-13.408
			c-1.687-3.691-3.682-7.962-5.562-11.552"/>
	</g>
	<g id="POLYLINE_32_">
		
			<path fill="none" stroke="#C346FF" stroke-width="2.75" stroke-linecap="round" stroke-linejoin="round" stroke-miterlimit="10" d="
			M368.124,285.169c-1.981,1.317-4.066,2.635-6.207,3.672c-3.965,1.92-8.227,3.388-12.475,4.541
			c-4.612,1.186-9.445,2.16-14.216,1.521c-1.77-0.251-3.54-0.708-5.123-1.555c-0.717-0.393-1.416-0.871-1.92-1.525
			c-0.355-0.46-0.582-1.01-0.697-1.577c-0.304-1.634-0.052-3.361,0.137-4.998c0.472-3.333,1.184-7.884,1.491-11.207
			c0.675-6.935,1.398-19.337,2.153-26.206c0.643-5.974,1.553-12.074,3.003-17.91c1.128-4.539,2.663-9.022,4.819-13.181
			c2.182-4.256,4.999-8.209,8.049-11.883c3.323-3.98,6.983-7.842,10.826-11.324"/>
	</g>
	<g id="POLYLINE_31_">
		
			<path fill="none" stroke="#C346FF" stroke-width="2.75" stroke-linecap="round" stroke-linejoin="round" stroke-miterlimit="10" d="
			M356.524,241.201c0.452,5.126,1.164,10.32,2.563,15.28c1.069,4.073,3.424,8.913,5.171,12.769c1.129,2.526,2.104,5.169,2.5,7.918
			c0.355,2.178,0.517,4.776,1.051,6.916c0.294,1.202,0.777,2.376,1.294,3.499c1.224,2.553,2.57,5.282,3.278,8.02
			c1.689,6.326,1.919,13.682,2.663,20.182c0.121,0.752,0.343,1.552,0.947,2.062c0.739,0.618,1.741,0.77,2.668,0.887
			c1.871,0.196,3.81,0.097,5.685-0.026c9.389-0.662,35.55-5.433,45.208-6.877c10.891-1.706,22.202-5.789,32.965-8.097
			c1.711-0.364,5.026-0.88,6.647-1.406c1.075-0.331,2.14-0.781,3.017-1.498c1.009-0.809,1.664-1.974,2.06-3.189
			c0.627-1.936,0.738-4.008,0.635-6.028c-0.196-4.012-1.467-7.895-3.109-11.534l-2.419-5.27c-1.923-4.198-3.126-8.758-3.284-13.383
			c-0.094-2.462,0.176-4.954,0.694-7.36"/>
	</g>
	<g id="POLYLINE_30_">
		
			<path fill="none" stroke="#C346FF" stroke-width="2.75" stroke-linecap="round" stroke-linejoin="round" stroke-miterlimit="10" d="
			M359.301,189.047c-0.273,0.687-0.667,1.49-0.887,2.19c-0.199,0.607-0.33,1.246-0.406,1.88c-0.334,3.404,0.056,6.9,0.477,10.283
			c0.391,2.825,0.925,5.744,1.668,8.496c0.392,1.402,0.816,2.848,1.45,4.162c0.184,0.354,0.41,0.804,0.737,1.036
			c0,0,0.01,0.006,0.01,0.006l0.01,0.006l0.01,0.006c0,0,0.01,0.005,0.01,0.005s0.01,0.005,0.01,0.005l0.01,0.005
			c0,0,0.01,0.005,0.01,0.005s0.01,0.004,0.01,0.004l0.01,0.004c0,0,0.009,0.004,0.009,0.004l0.009,0.003l0.009,0.003l0.009,0.003
			c0,0,0.009,0.003,0.009,0.003l0.009,0.002l0.009,0.002l0.009,0.002l0.009,0.002l0.009,0.001l0.009,0.001
			c0,0,0.009,0.001,0.009,0.001s0.009,0,0.009,0s0.009,0,0.009,0s0.009,0,0.009,0s0.009-0.001,0.009-0.001l0.009-0.001
			c0,0,0.009-0.001,0.009-0.001l0.009-0.001l0.009-0.002c0,0,0.009-0.002,0.009-0.002l0.009-0.002l0.009-0.003
			c0,0,0.009-0.003,0.009-0.003l0.009-0.004c0,0,0.009-0.004,0.009-0.004l0.009-0.004c0,0,0.009-0.005,0.009-0.005
			s0.009-0.005,0.009-0.005l0.009-0.005l0.009-0.006c0,0,0.009-0.006,0.009-0.006l0.009-0.006l0.009-0.007l0.009-0.007l0.009-0.007
			c0,0,0.009-0.008,0.009-0.008l0.009-0.008c0,0,0.009-0.008,0.009-0.008l0.009-0.009l0.009-0.009c0,0,0.009-0.009,0.009-0.009
			l0.009-0.009l0.008-0.01c0.179-0.223,0.271-0.503,0.361-0.771c0.641-2.287,1.053-5.282,1.832-7.604
			c0.678-2.092,1.565-4.155,2.813-5.973c0.637-0.899,1.371-1.792,2.357-2.321c0.271-0.141,0.565-0.246,0.869-0.284
			c0.336-0.043,0.68-0.004,1.004,0.09c0.881,0.264,1.636,0.842,2.364,1.385c0.695,0.545,1.639,1.269,2.367,1.756
			c0.928,0.621,1.958,1.215,2.938,1.752c1.631,0.871,4.713,2.457,6.268,3.379"/>
	</g>
	<g id="POLYLINE_29_">
		
			<path fill="none" stroke="#C346FF" stroke-width="2.75" stroke-linecap="round" stroke-linejoin="round" stroke-miterlimit="10" d="
			M417.357,170.46c0.816-0.381,1.706-0.761,2.369-1.382c0.948-0.869,1.515-2.065,1.99-3.24c0.446-1.165,0.822-2.387,0.908-3.638
			c0.016-0.4,0.018-0.829-0.168-1.194l-0.008-0.014c0,0-0.008-0.014-0.008-0.014s-0.008-0.013-0.008-0.013l-0.008-0.013
			c0,0-0.008-0.013-0.008-0.013s-0.009-0.012-0.009-0.012l-0.009-0.012l-0.009-0.012l-0.009-0.012l-0.009-0.011
			c-0.325-0.38-0.927-0.245-1.354-0.154c-0.688,0.162-1.47,0.438-2.169,0.541c-0.45,0.07-0.913,0.079-1.367,0.038
			c-1.244-0.108-2.458-0.597-3.606-1.065c-0.603-0.247-1.243-0.498-1.784-0.864c-0.788-0.516-1.378-1.277-1.855-2.078
			c-1.643-2.845-2.914-6.479-4.44-9.389c-0.657-1.269-1.4-2.523-2.35-3.597c-1.392-1.635-3.383-2.835-5.183-3.973"/>
	</g>
	<g id="POLYLINE_28_">
		
			<path fill="none" stroke="#C346FF" stroke-width="2.75" stroke-linecap="round" stroke-linejoin="round" stroke-miterlimit="10" d="
			M402.29,193.414c-0.04-1.102,0.176-2.203,0.495-3.253c0.486-1.575,1.221-3.08,2.059-4.496c0.512-0.856,1.082-1.712,1.699-2.496
			c0.192-0.24,0.392-0.485,0.624-0.687c0.194-0.17,0.421-0.306,0.671-0.375c0.256-0.073,0.527-0.083,0.792-0.07
			c1.055,0.079,2.113,0.393,3.134,0.658c3.042,0.822,7.401,2.299,10.504,2.655c0.481,0.04,0.98,0.071,1.452-0.052l0.028-0.008
			c0,0,0.027-0.008,0.027-0.008s0.026-0.009,0.026-0.009s0.026-0.009,0.026-0.009c0.345-0.119,0.568-0.393,0.593-0.751
			c0.04-0.649-0.345-1.311-0.706-1.826c-1.178-1.567-2.934-2.942-4.17-4.461c-1.856-2.195-3.425-4.714-4.899-7.178"/>
	</g>
	<g id="POLYLINE_27_">
		
			<path fill="none" stroke="#C346FF" stroke-width="2.75" stroke-linecap="round" stroke-linejoin="round" stroke-miterlimit="10" d="
			M399.239,163.009c1.32,0.215,2.723,0.378,3.926,0.987c0.917,0.446,1.669,1.164,2.286,1.966c0.892,1.135,1.918,2.901,2.792,4.054
			c0.532,0.682,1.127,1.397,1.954,1.72c0.831,0.315,1.74,0.119,2.567-0.11c1.104-0.319,2.376-0.774,3.5-0.989
			c0.93-0.187,1.898-0.275,2.845-0.31c1.783-0.062,3.618,0.057,5.393,0.231c2.71,0.232,15.229,2.164,18.145,2.569
			c3.907,0.581,7.902,1.396,11.347,3.415c2.562,1.468,4.822,3.441,6.863,5.562c3.153,3.292,5.983,7.096,8.669,10.775
			c5.053,7.103,13.819,19.93,19.212,26.549c2.219,2.769,7.327,8.846,9.354,11.616c0.482,0.666,0.982,1.377,1.386,2.091
			c0.272,0.496,0.549,1.02,0.604,1.592c0.033,0.348-0.056,0.696-0.211,1.006c-0.392,0.756-0.964,1.42-1.517,2.063
			c-4.386,4.834-9.835,8.691-15.294,12.219c-1.859,1.186-8.672,5.398-10.34,6.594c-0.233,0.152-0.477,0.306-0.726,0.428
			c-0.327,0.162-0.689,0.276-1.057,0.257c-0.75-0.044-1.397-0.524-1.965-0.976c-1.92-1.637-3.443-3.732-4.916-5.766
			c-1.857-2.633-3.609-5.451-5.185-8.262c-3.891-7.213-9.776-18.823-13.294-26.164"/>
	</g>
	<g id="POLYLINE_26_">
		
			<path fill="none" stroke="#C346FF" stroke-width="2.75" stroke-linecap="round" stroke-linejoin="round" stroke-miterlimit="10" d="
			M354.723,163.397l0.371,1.736c0.279,1.356,0.366,2.802-0.118,4.122c-0.422,1.177-1.185,2.205-1.93,3.195
			c-1.055,1.412-2.465,2.946-3.158,4.574c-0.186,0.46-0.306,0.964-0.236,1.461c0.124,0.91,0.742,1.685,1.208,2.448
			c0.386,0.618,0.735,1.301,0.758,2.044c0.019,1.275-0.672,2.566-1.119,3.732c-0.192,0.495-0.387,1.007-0.448,1.537
			c-0.031,0.283-0.015,0.582,0.116,0.839l0.009,0.017l0.009,0.017c0,0,0.009,0.017,0.009,0.017l0.01,0.016
			c0,0,0.01,0.016,0.01,0.016s0.01,0.016,0.01,0.016s0.011,0.016,0.011,0.016c0.235,0.338,0.623,0.527,1.003,0.656
			c0.955,0.3,1.978,0.311,2.97,0.273c1.153-0.059,2.322-0.226,3.441-0.509c0.844-0.216,1.678-0.521,2.414-0.993
			c1.03-0.658,1.83-1.612,2.585-2.559c1.156-1.496,2.173-3.147,2.727-4.965"/>
	</g>
	<g id="POLYLINE_25_">
		
			<path fill="none" stroke="#C346FF" stroke-width="2.75" stroke-linecap="round" stroke-linejoin="round" stroke-miterlimit="10" d="
			M362.203,172.595c0.795,3.285,1.893,6.56,3.722,9.423c1.475,2.398,4.025,5.48,5.777,7.721c1.57,1.95,5.793,7.834,7.328,9.927
			c3.726,5.005,7.88,9.976,12.089,14.579c2.466,2.667,5.094,5.434,7.845,7.801c0.797,0.675,1.635,1.35,2.522,1.902
			c0.423,0.257,0.867,0.505,1.348,0.636c0,0,0.042,0.01,0.042,0.01s0.041,0.01,0.041,0.01l0.04,0.009c0,0,0.04,0.008,0.04,0.008
			l0.039,0.007l0.038,0.006l0.038,0.005c0,0,0.037,0.003,0.037,0.003l0.036,0.002c0,0,0.036,0.001,0.036,0.001l0.035,0
			c0,0,0.034-0.001,0.034-0.001l0.034-0.002c0,0,0.033-0.003,0.033-0.003s0.032-0.004,0.032-0.004l0.032-0.005l0.031-0.006
			l0.03-0.007l0.029-0.008l0.019-0.006l0.019-0.006c0,0,0.019-0.007,0.019-0.007s0.018-0.007,0.018-0.007s0.018-0.008,0.018-0.008
			l0.018-0.008l0.017-0.009l0.017-0.009l0.017-0.01c0,0,0.017-0.01,0.017-0.01s0.016-0.011,0.016-0.011l0.016-0.011
			c0,0,0.016-0.012,0.016-0.012s0.015-0.012,0.015-0.012l0.015-0.013l0.015-0.013l0.014-0.013l0.014-0.014
			c0,0,0.014-0.014,0.014-0.014l0.014-0.015c0,0,0.013-0.015,0.013-0.015l0.013-0.016l0.013-0.016c0,0,0.012-0.017,0.012-0.017
			l0.012-0.017l0.012-0.017c0,0,0.012-0.018,0.012-0.018l0.011-0.018l0.011-0.019c0,0,0.011-0.019,0.011-0.019l0.011-0.02l0.01-0.02
			c0,0,0.01-0.02,0.01-0.02l0.01-0.021c0.131-0.296,0.168-0.625,0.184-0.945c0.032-0.866-0.097-1.752-0.224-2.607
			c-0.312-1.946-1.134-5.888-1.392-7.817c-0.262-1.846-0.423-3.791-0.497-5.654c-0.201-4.218,0.189-11.026,0.25-15.285
			c0.046-2.887-0.056-6.066-0.205-8.954c-0.195-2.554-0.749-11.506-0.985-13.878c-0.079-0.669-0.196-1.35-0.363-2.003
			c-0.589-2.332-2.108-5.116-3.08-7.324c-0.738-1.602-1.242-3.321-1.484-5.068c-0.251-1.666-0.419-3.38-0.388-5.065"/>
	</g>
	<g id="POLYLINE_24_">
		
			<path fill="none" stroke="#C346FF" stroke-width="2.75" stroke-linecap="round" stroke-linejoin="round" stroke-miterlimit="10" d="
			M346.94,149.09c-1.335-3.271-2.12-6.777-2.272-10.308"/>
	</g>
	<g id="POLYLINE_23_">
		
			<path fill="none" stroke="#C346FF" stroke-width="2.75" stroke-linecap="round" stroke-linejoin="round" stroke-miterlimit="10" d="
			M344.065,135.276c-1.32-2.401-2.492-4.966-2.782-7.719c-0.222-1.934-0.042-3.904,0.367-5.801c0.513-2.357,1.384-4.648,2.558-6.755
			c1.406-2.513,3.286-4.807,5.642-6.483c3.208-2.272,7.116-3.353,10.984-3.786c3.439-0.375,6.954-0.251,10.373,0.258
			c3.196,0.482,6.383,1.357,9.221,2.933c4.04,2.206,7.12,5.809,9.549,9.656c2.981,4.74,5.13,10.04,6.138,15.554"/>
	</g>
	<g id="POLYLINE_22_">
		
			<path fill="none" stroke="#C346FF" stroke-width="2.75" stroke-linecap="round" stroke-linejoin="round" stroke-miterlimit="10" d="
			M386.874,126.345c-1.175,0.032-2.581-0.079-3.757-0.167c-0.927-0.092-1.868-0.267-2.707-0.69c-1.33-0.674-2.402-2.092-3.42-3.152
			c-1.409-1.543-3.107-2.808-4.935-3.813c-2.099-1.165-4.361-2.092-6.674-2.735c-1.927-0.52-3.943-0.887-5.943-0.694
			c-1.292,0.124-2.563,0.528-3.674,1.202c-2.238,1.37-3.84,3.562-5.124,5.808c-0.742,1.328-1.368,2.735-1.832,4.184
			c-0.418,1.312-0.708,2.683-0.734,4.063c-0.066,1.917,0.431,3.695,0.631,5.535c0.099,1.044-0.111,2.197-0.272,3.229"/>
	</g>
	<g id="POLYLINE_19_">
		
			<path fill="none" stroke="#C346FF" stroke-width="2.75" stroke-linecap="round" stroke-linejoin="round" stroke-miterlimit="10" d="
			M348.434,139.115c-0.475,0.502-1.087,0.953-1.797,1.004c-0.643,0.038-1.24-0.336-1.632-0.824
			c-0.402-0.493-0.624-1.106-0.756-1.722c-0.209-0.997-0.212-2.035-0.155-3.048c0.126-1.969,0.498-3.95,0.953-5.867
			c0.598-2.462,1.409-4.911,2.508-7.196c0.974-2.01,2.19-3.944,3.804-5.502c2.014-1.96,4.658-3.238,7.433-3.653
			c4.205-0.651,8.459,0.551,12.281,2.253c3.642,1.642,7.048,3.843,10.087,6.432c1.759,1.463,4.218,3.915,5.883,5.517
			c2.043,1.955,5.346,4.965,7.388,6.923"/>
	</g>
	<g id="POLYLINE_18_">
		
			<path fill="none" stroke="#C346FF" stroke-width="2.75" stroke-linecap="round" stroke-linejoin="round" stroke-miterlimit="10" d="
			M363.488,172.944c-0.65-0.199-1.542-0.379-2.164-0.642c-0.46-0.186-0.895-0.443-1.275-0.763c-0.717-0.603-1.244-1.401-1.735-2.189
			c-0.818-1.32-1.819-3.353-2.633-4.682c-0.216-0.346-0.447-0.696-0.71-1.007c-0.187-0.217-0.395-0.43-0.659-0.552
			c-0.208-0.098-0.441-0.12-0.668-0.115c-0.265,0.007-0.553,0.025-0.811-0.044c-0.241-0.063-0.461-0.19-0.663-0.334
			c-0.673-0.496-1.198-1.171-1.687-1.842c-0.964-1.36-1.772-2.863-2.485-4.368c-0.542-1.162-1.038-2.371-1.387-3.606
			c-0.192-0.699-0.351-1.423-0.35-2.151c0.003-0.544,0.119-1.165,0.588-1.501c0.493-0.352,1.116-0.175,1.576,0.145
			c0.764,0.522,1.388,1.317,2.055,1.951c0.108,0.097,0.227,0.208,0.359,0.265c0.006,0.002,0.012,0.005,0.012,0.005
			c0.006,0.002,0.012,0.004,0.012,0.004c0.006,0.002,0.012,0.003,0.012,0.003c0.006,0.001,0.011,0.003,0.011,0.003
			c0.005,0.001,0.011,0.002,0.011,0.002c0.005,0.001,0.011,0.001,0.011,0.001c0.005,0,0.01,0.001,0.01,0.001c0.005,0,0.01,0,0.01,0
			c0.005,0,0.01-0.001,0.01-0.001c0.005-0.001,0.009-0.002,0.009-0.002c0.005-0.001,0.009-0.002,0.009-0.002
			c0.006-0.002,0.012-0.004,0.012-0.004c0.006-0.003,0.011-0.006,0.011-0.006c0.005-0.003,0.011-0.007,0.011-0.007
			c0.005-0.004,0.01-0.009,0.01-0.009c0.005-0.005,0.009-0.01,0.009-0.01c0.004-0.006,0.009-0.012,0.009-0.012
			c0.004-0.006,0.008-0.013,0.008-0.013c0.004-0.007,0.007-0.014,0.007-0.014c0.003-0.008,0.007-0.016,0.007-0.016
			c0.003-0.008,0.006-0.017,0.006-0.017l0.003-0.009l0.003-0.009l0.003-0.01l0.002-0.01c0,0,0.002-0.01,0.002-0.01l0.002-0.011
			l0.002-0.011c0.057-0.475-0.113-1.146-0.208-1.622c-0.427-1.881-1.12-4.145-1.558-6.023c-0.337-1.402-0.597-3.164-0.864-4.586"/>
	</g>
	<g id="POLYLINE_16_">
		
			<path fill="none" stroke="#C346FF" stroke-width="2.75" stroke-linecap="round" stroke-linejoin="round" stroke-miterlimit="10" d="
			M387.368,164.665c1.946-1.866,3.909-3.9,4.838-6.484c0.594-1.603,0.796-3.561,1.069-5.248c0.132-0.753,0.265-1.528,0.588-2.226
			c0.15-0.315,0.359-0.618,0.664-0.799c0.608-0.362,1.377-0.3,2.032-0.526c0.491-0.157,0.831-0.499,1.075-0.944
			c0.347-0.635,0.506-1.357,0.618-2.066c0.24-1.645,0.201-3.343,0.096-4.999c-0.123-1.734-0.351-3.517-0.72-5.216
			c-0.168-0.739-0.351-1.496-0.649-2.195c-0.132-0.303-0.323-0.626-0.637-0.759c-0.3-0.128-0.64-0.116-0.956-0.068
			c-0.637,0.106-1.236,0.39-1.766,0.755c-1.145,0.779-1.903,2.061-2.821,3.07c-0.255,0.266-0.573,0.602-0.952,0.661
			c0,0-0.011,0.001-0.011,0.001s-0.011,0.001-0.011,0.001l-0.011,0.001l-0.011,0.001l-0.011,0.001l-0.011,0l-0.011,0l-0.011,0
			l-0.011,0l-0.011-0.001l-0.011-0.001l-0.011-0.001c0,0-0.011-0.001-0.011-0.001l-0.011-0.001c0,0-0.01-0.002-0.01-0.002
			l-0.011-0.002c0,0-0.01-0.002-0.01-0.002l-0.01-0.002c0,0-0.013-0.003-0.013-0.003s-0.013-0.003-0.013-0.003l-0.013-0.004
			l-0.013-0.004l-0.013-0.004l-0.013-0.005l-0.013-0.005l-0.013-0.005c0,0-0.013-0.006-0.013-0.006s-0.013-0.006-0.013-0.006
			l-0.013-0.006l-0.013-0.007c0,0-0.013-0.007-0.013-0.007s-0.013-0.007-0.013-0.007s-0.013-0.008-0.013-0.008l-0.013-0.008
			c0,0-0.013-0.008-0.013-0.008s-0.013-0.009-0.013-0.009c-0.194-0.138-0.335-0.337-0.459-0.537
			c-0.431-0.731-0.694-1.577-0.957-2.38l-0.815-2.682c-0.286-0.917-0.627-1.845-1.068-2.699c-0.489-0.972-1.21-2.008-1.765-2.945"/>
	</g>
	<g id="POLYLINE_13_">
		
			<path fill="none" stroke="#C346FF" stroke-width="2.75" stroke-linecap="round" stroke-linejoin="round" stroke-miterlimit="10" d="
			M367.795,173.711c1.808,0.238,3.661,0.327,5.471,0.064c1.808-0.254,3.561-0.851,5.233-1.573c1.617-0.711,3.211-1.538,4.653-2.563
			c0.792-0.565,1.527-1.249,2.219-1.931"/>
	</g>
	<g id="POLYLINE_11_">
		
			<path fill="none" stroke="#C346FF" stroke-width="2.75" stroke-linecap="round" stroke-linejoin="round" stroke-miterlimit="10" d="
			M365.156,175.382c-0.49-0.211-0.828-0.658-1.087-1.109c-0.865-1.614-1.193-3.544-1.596-5.317
			c-0.634-3.301-1.654-7.15-1.548-10.514c0.038-1.243,0.227-2.504,0.72-3.654c0.594-1.399,1.664-2.55,2.89-3.429
			c1.839-1.31,4.003-2.11,6.199-2.583c3.164-0.656,6.752-0.714,9.543,1.129c2.305,1.568,3.581,4.182,4.653,6.672
			c1.042,2.536,2.055,5.164,2.418,7.895c0.088,0.791,0.123,1.613-0.097,2.386c-0.107,0.362-0.268,0.72-0.528,0.999
			c-0.173,0.188-0.431,0.346-0.693,0.307c-0.219-0.032-0.4-0.177-0.549-0.332c-0.226-0.24-0.404-0.526-0.567-0.812
			c-0.861-1.611-1.96-4.487-2.734-6.163c-0.801-1.731-1.632-3.506-2.785-5.033c-0.524-0.675-1.164-1.338-2.013-1.565
			c-0.698-0.192-1.437-0.071-2.126,0.104c-2.684,0.746-5.26,2.005-7.751,3.235c-0.576,0.302-1.164,0.629-1.605,1.115
			c-0.266,0.291-0.465,0.641-0.59,1.015c-0.268,0.831-0.261,1.726-0.21,2.589c0.13,1.779,0.537,3.542,1.029,5.253
			c0.449,1.661,1.273,3.45,1.613,5.139c0.061,0.357,0.094,0.726,0.043,1.086c-0.078,0.631-0.484,1.149-1.036,1.448
			C366.269,175.503,365.67,175.599,365.156,175.382z"/>
	</g>
</g>
<g id="AG-OUTLINE">
	<g id="POLYLINE_2_">
		
			<path fill="none" stroke="#C346FF" stroke-width="3.5" stroke-linecap="round" stroke-linejoin="round" stroke-miterlimit="10" d="
			M367.798,372.54c-0.546-5.558-0.825-11.265-0.452-16.84c0.26-3.501,0.725-7.066,1.981-10.363c0.683-1.792,1.714-3.456,3.046-4.837
			c1.332-1.423,3.072-2.561,4.698-3.626c0.523-0.357,1.051-0.752,1.384-1.301c0.543-0.893,0.534-1.989,0.556-3.001
			c0.015-2.31-0.186-4.846,0.548-7.065c0.203-0.593,0.49-1.166,0.892-1.649c0.336-0.406,0.751-0.743,1.204-1.011
			c0,0-0.071-4.009-0.071-4.009c-1.363,0.014-2.76,0.004-4.095-0.301c-0.61-0.147-1.23-0.385-1.667-0.852
			c-0.465-0.491-0.651-1.167-0.764-1.817c-0.835-6.981-0.961-14.858-3.074-21.601c-0.44-1.365-1.015-2.734-1.623-4.034
			c-0.693-1.476-1.734-3.514-2.237-5.063c-2.016,1.343-4.186,2.707-6.368,3.751c0.251,12.819-1.696,25.766-5.993,37.858
			c-3.232,9.121-8.116,17.687-13.447,25.735l-9.074,13.351c-1.406,2.104-2.888,4.664-4.134,6.881
			c5.899,0.202,24.627-0.215,30.818-0.295C361.888,372.444,365.837,372.49,367.798,372.54z"/>
	</g>
	<g id="POLYLINE_3_">
		
			<path fill="none" stroke="#C346FF" stroke-width="3.5" stroke-linecap="round" stroke-linejoin="round" stroke-miterlimit="10" d="
			M344.065,135.276c-1.32-2.401-2.492-4.966-2.782-7.719c-0.222-1.934-0.042-3.904,0.367-5.801c0.513-2.357,1.384-4.648,2.558-6.755
			c1.406-2.513,3.286-4.807,5.642-6.483c3.208-2.272,7.116-3.353,10.984-3.786c3.439-0.375,6.954-0.251,10.373,0.258
			c3.196,0.482,6.383,1.357,9.221,2.933c4.04,2.206,7.12,5.809,9.549,9.656c2.981,4.74,5.13,10.04,6.138,15.554
			c0.163,0.031,0.334,0.107,0.456,0.216c0.192,0.167,0.306,0.387,0.408,0.614c0.268,0.626,0.44,1.299,0.596,1.96
			c0.328,1.44,0.546,2.947,0.688,4.417c1.808,1.142,3.787,2.337,5.183,3.973c0.95,1.074,1.693,2.327,2.35,3.597
			c1.526,2.91,2.797,6.543,4.44,9.389c0.477,0.801,1.067,1.563,1.855,2.078c0.655,0.448,1.582,0.771,2.315,1.079
			c0.986,0.395,2.011,0.755,3.075,0.85c0.453,0.041,0.917,0.032,1.367-0.038c0.699-0.103,1.482-0.379,2.169-0.541
			c0.43-0.091,1.03-0.225,1.354,0.154l0.009,0.011l0.009,0.012l0.009,0.012l0.009,0.012c0,0,0.009,0.012,0.009,0.012
			s0.008,0.013,0.008,0.013s0.008,0.013,0.008,0.013l0.008,0.013c0,0,0.008,0.014,0.008,0.014s0.008,0.014,0.008,0.014
			c0.186,0.365,0.183,0.794,0.168,1.194c-0.086,1.25-0.462,2.473-0.908,3.638c-0.476,1.175-1.042,2.371-1.99,3.24
			c-0.663,0.62-1.555,1.002-2.369,1.382c3.81-0.422,7.701,0.125,11.478,0.636c4.427,0.74,15.749,2.049,19.905,3.262
			c2.055,0.575,4.048,1.416,5.862,2.542c2.475,1.521,4.662,3.503,6.648,5.613c2.982,3.183,5.71,6.84,8.279,10.364
			c5.053,7.103,13.819,19.93,19.212,26.549c2.796,3.543,8.189,9.683,10.543,13.371c0.31,0.524,0.625,1.069,0.762,1.667
			c0.077,0.339,0.056,0.698-0.067,1.023c-0.241,0.616-0.671,1.146-1.075,1.662c-2.111,2.533-4.664,4.731-7.224,6.798
			c1.879,3.589,3.875,7.858,5.562,11.552c1.958,4.288,3.986,8.946,5.458,13.408c2.97,8.96,4.635,18.417,5.635,27.788
			c0.667,5.679,0.838,15.608,1.038,21.407c0.165,3.516,0.47,7.098,1.232,10.537c0.965,4.471,2.723,9.617,3.421,14.135
			c1.131,7.338,0.491,14.878-0.617,22.182c-0.585,3.632-1.303,7.336-2.466,10.83c-0.968,2.929-2.357,5.771-4.419,8.089
			c-1.453,1.661-3.172,3.104-4.93,4.431c-1.897,1.41-3.947,2.687-6.188,3.468c1.074,6.445,1.99,13.208,2.377,19.729
			c0.37,6.094,0.095,14.4,0.421,20.503c0.29,7.72,3.168,32.226,3.964,40.286c0.234,2.035,0.561,4.75,0.899,6.764
			c0.468,2.893,1.134,5.817,2.16,8.566c0,0,1.385,3.686,1.385,3.686c0.578,1.583,1.071,3.221,1.198,4.908
			c0.081,0.942,0.081,1.923,0.052,2.868c-0.171,3.497-0.438,7.846-0.369,11.315c0.052,9.058,1.239,28.66,0.948,37.602
			c-0.067,3.092-0.465,8.939-0.506,12.02c-0.006,0.844,0.011,1.737,0.096,2.576c0.125,1.249,0.404,2.505,0.981,3.628
			c0.423,0.839,1.032,1.574,1.723,2.207c1.574,1.458,3.628,2.593,5.207,4.044c0.82,0.748,1.455,1.632,1.73,2.721
			c0.186,0.706,0.232,1.446,0.208,2.174c-0.058,1.933-0.865,5.601-1.172,7.532c-0.444,2.657-0.763,5.399-0.727,8.097
			c0.014,1.786,0.225,3.612,0.527,5.371c0.295,1.73,0.897,4.581,1.039,6.296c0.041,0.516,0.061,1.045,0.006,1.56
			c-0.047,0.42-0.144,0.851-0.381,1.208c-0.15,0.226-0.364,0.407-0.607,0.528c0.946,1.863,1.98,3.752,3.187,5.458
			c0.829,1.163,1.768,2.278,2.91,3.147c0.42,0.32,0.877,0.61,1.341,0.862c1.203,0.648,3.937,1.851,5.201,2.448
			c1.716,0.846,3.602,1.682,4.753,3.277c0.664,0.927,0.996,2.047,1.186,3.16c0.284,1.738,0.26,3.531-0.026,5.268
			c-0.231,1.321-0.645,2.674-1.542,3.701c-0.664,0.772-1.572,1.202-2.556,1.409c-1.371,0.291-2.826,0.306-4.223,0.339
			c-3.838-0.071-40.923,0.19-43.644-0.129c-1.055-0.105-2.133-0.267-3.108-0.703c-0.628-0.281-1.178-0.735-1.552-1.313
			c-0.605-0.931-0.844-2.048-1.004-3.133c-0.32-2.401-0.241-4.873-0.076-7.285c-2.495-3.717-4.154-8.027-5.622-12.236
			c-2.676-7.778-4.208-15.962-4.941-24.146l-1.099-13.741c-0.488-5.267-1.287-10.713-4.032-15.331
			c-1.751-3.023-4.122-5.664-6.634-8.073c-5.298-5.044-11.786-9.816-17.668-14.193c-0.019,4.121,0.348,8.418,0.816,12.512
			c0.649,5.484,1.568,11.135,2.804,16.518c0.847,3.867,2.46,8.548,3.248,12.429c0.215,1.157,0.363,2.347,0.266,3.525
			c-0.122,1.675-0.936,3.37-1.485,4.938c-0.299,0.856-0.523,1.75-0.619,2.653c-0.117,1.042-0.111,2.116-0.056,3.163
			c0.156,2.941,0.943,7.387,1.356,10.336c0.244,1.832,0.465,3.735,0.41,5.583c-0.034,0.95-0.136,1.917-0.442,2.821
			c-0.204,0.598-0.511,1.176-0.969,1.619c-0.354,0.347-0.799,0.592-1.268,0.748c1.628,4.935,2.922,10.115,2.75,15.347
			c-0.081,1.642-0.219,3.32-0.688,4.902c-0.242,0.773-0.621,1.54-1.262,2.057c-0.43,0.352-0.951,0.581-1.484,0.728
			c-1.599,0.412-3.39,0.362-5.034,0.408c-1.855-0.073-46.756,0.178-47.521-0.127c-3.739,0.245-9.808,0.11-13.62,0.127
			c-5.208-0.071-10.817-0.15-15.989-0.673c-1.117-0.124-2.287-0.27-3.383-0.513c-0.548-0.125-1.104-0.272-1.614-0.512
			c-0.377-0.178-0.737-0.422-0.979-0.768c-0.236-0.332-0.342-0.738-0.382-1.139c-0.051-0.502-0.018-1.024,0.018-1.527
			c0.083-0.986,0.186-2.07,0.329-3.047c0.436-2.929,1.294-6.002,3.46-8.137c1.042-1.023,2.307-1.801,3.623-2.421
			c1.879-0.88,3.906-1.464,5.927-1.917l3.511-0.71c1.772-0.363,3.527-0.976,4.979-2.08c1.29-0.956,2.366-2.186,3.339-3.456
			c1.424-1.881,2.663-3.94,3.74-6.038c1.358-2.707,2.579-5.554,3.13-8.545c0.333-1.852,0.327-3.763,0.078-5.626
			c-0.399-2.978-1.31-5.904-2.292-8.737c-2.351-6.468-7.316-18.797-9.62-25.234c-3.061-8.373-6.987-20.094-9.696-28.614
			c-1.731,1.205-3.63,2.583-5.27,3.9c-1.388,14.323-3.284,32.002-3.482,46.27c-0.004,1.491,0.026,3.025,0.266,4.498
			c0.672,4.436,3.944,8.308,4.376,12.801c0.111,1.32-0.181,2.661-0.793,3.833c-0.653,1.265-1.612,2.351-2.652,3.312
			c-1.453,1.333-3.102,2.48-4.782,3.508c-5.629,3.374-11.914,5.67-18.336,6.977c-3.385,0.655-6.885,1.081-10.33,0.725
			c-2.52-0.277-5.257-1.053-6.85-3.163c-0.645-0.859-1.035-1.887-1.261-2.931c-0.321-1.497-0.335-3.055-0.227-4.577
			c0.59-6.98,3.394-13.751,6.071-20.164c1.797-4.397,3.233-9.007,4.144-13.67c1.586-7.888,1.582-16.106-0.03-23.99
			c-0.845-4.108-2.054-8.212-3.998-11.943c-1.142-2.154-2.567-4.24-4.553-5.697c-1.723-1.284-3.803-1.996-5.897-2.396
			c-1.542-0.311-3.378-0.485-4.947-0.652c-1.757-0.135-3.899-0.4-5.658-0.452c-1.788-0.074-3.621-0.105-5.397,0.146
			c-0.926,0.14-1.87,0.346-2.69,0.815c-0.369,0.213-0.702,0.497-0.95,0.845c-0.291,0.404-0.467,0.882-0.568,1.366
			c-0.323,1.537-0.066,3.911-0.035,5.5c0.159,4.878-0.492,13.284-0.592,18.217c-0.133,5.61-0.05,11.359,0.863,16.904
			c1.167,7.149,3.689,14.062,6.641,20.653c2.898,6.603,7.387,14.63,9.323,21.541c0.703,2.486,0.899,5.094,0.779,7.668
			c-0.189,2.663-0.257,6.339-0.22,8.993c-0.015,1.432-0.037,2.926-0.274,4.341c-0.159,0.938-0.406,1.881-0.878,2.713
			c-1.14,2.027-3.547,2.752-5.702,3.117c-3.936,0.614-8.101,0.648-12.082,0.696c-6.332-0.063-14.609-0.06-20.904-0.521
			c-1.938-0.183-3.959-0.357-5.832-0.907c-0.986-0.301-1.952-0.764-2.685-1.503c-0.754-0.746-1.198-1.747-1.432-2.77
			c-0.315-1.364-0.34-2.79-0.212-4.179c0.251-2.429,0.952-4.952,2.449-6.917c0.723-0.93,1.672-1.669,2.7-2.237
			c1.169-0.667,2.672-1.182,3.909-1.718c1.204-0.51,2.379-1.231,3.099-2.352c0.549-0.833,0.83-1.814,0.97-2.794
			c0.192-1.37,0.155-2.775,0.03-4.15c-0.289-2.946-1.001-5.871-2.06-8.634c-1.116-2.956-3.22-6.535-4.724-9.33
			c-1.499-2.776-2.606-5.78-3.459-8.813c-2.016-7.391-7.295-30.58-9.218-38.461c-1.934-8.744-4.114-18.443-5.419-27.261
			c-1.125-7.091-1.417-16.109-1.998-23.301c-0.957-10.709-3.778-27.343-4.586-38.01c-0.7-8.383-1.003-16.949-0.086-25.325
			c0.846-7.765,2.777-15.444,5.621-22.718c3.292-8.44,7.843-16.441,13-23.876c4.357-6.192,9.116-12.295,15.024-17.088
			c2.532-1.983,5.365-3.829,8.589-4.369c2.573-0.434,5.198,0.201,7.55,1.248c1.519,0.652,3.039,1.525,4.468,2.357
			c3.742,2.25,8.007,4.947,11.607,7.415c1.357-0.291,2.83-0.588,4.202-0.771c0.881-0.115,2.169-0.233,3.01-0.465
			c0.682-0.181,1.334-0.492,1.882-0.94c0.749-0.611,1.326-1.41,1.843-2.22c1.099-1.76,1.947-3.721,2.731-5.639
			c1.996-5.189,4.221-11.3,5.755-16.637c1.002-3.503,1.754-7.358,2.381-10.954c1.143-6.563,2.402-15.103,4.34-21.435
			c1.706-5.758,4.24-11.379,6.902-16.755c-2.264-0.216-4.569-0.727-6.542-1.898c-0.555-0.34-1.086-0.742-1.492-1.256
			c-0.324-0.408-0.55-0.89-0.678-1.395c-0.324-1.353-0.174-2.777-0.044-4.146c0.36-3.086,1.127-7.553,1.445-10.631
			c0.429-3.48,1.332-16.461,1.625-20.171c0.597-7.483,1.422-15.244,3.004-22.583c0.917-4.225,2.097-8.479,3.779-12.467
			c2.365-5.696,5.851-10.888,9.789-15.612c3.323-3.98,6.983-7.841,10.826-11.324c0.065-0.733,0.191-1.473,0.411-2.176
			c0.225-0.741,0.633-1.593,0.926-2.313c-1.015,0.471-2.128,0.717-3.228,0.893c-1.156,0.173-2.344,0.264-3.51,0.167
			c-0.561-0.053-1.132-0.144-1.648-0.377c-0.261-0.121-0.513-0.287-0.678-0.528l-0.011-0.016l-0.01-0.016l-0.01-0.016
			c0,0-0.01-0.016-0.01-0.016s-0.009-0.017-0.009-0.017s-0.009-0.017-0.009-0.017s-0.009-0.017-0.009-0.017
			c-0.132-0.257-0.147-0.557-0.116-0.839c0.061-0.53,0.257-1.043,0.448-1.537c0.448-1.171,1.138-2.455,1.119-3.732
			c-0.023-0.743-0.372-1.425-0.758-2.044c-0.467-0.764-1.084-1.538-1.208-2.448c-0.069-0.498,0.051-1.001,0.236-1.461
			c0.69-1.624,2.105-3.166,3.158-4.574c0.756-1.005,1.532-2.049,1.948-3.247c0.465-1.307,0.374-2.732,0.099-4.07
			c0,0-0.371-1.736-0.371-1.736c-0.143-0.135-0.306-0.255-0.492-0.323c-0.186-0.07-0.389-0.085-0.586-0.081
			c-0.25-0.001-0.524,0.029-0.767-0.033c-0.207-0.046-0.4-0.143-0.578-0.257c-0.482-0.316-0.88-0.748-1.248-1.188
			c-0.699-0.854-1.297-1.807-1.843-2.764c-0.902-1.611-1.715-3.311-2.318-5.057c-0.32-0.967-0.612-1.973-0.628-2.998
			c-0.005-0.59,0.125-1.288,0.679-1.606c-1.335-3.271-2.12-6.777-2.272-10.308C344.122,137.708,344.056,136.461,344.065,135.276z"/>
	</g>
</g>
</svg>
